<svg width="83" height="32" viewBox="0 0 83 32" fill="none" xmlns="http://www.w3.org/2000/svg">
    <g>
        <path d="M7.23633 16.6259V16.6289L7.23953 16.6259H7.23633Z" fill="#0B3A81"></path>
        <path d="M16.7984 3.6227C15.1572 2.4095 12.9113 1.72054 10.3446 1.72054H-0.00976562V3.1335H2.70976V14.4932C2.70976 14.4932 6.69293 14.0919 6.69293 10.8844V7.65349C6.69293 5.39122 8.52698 3.55717 10.7894 3.55717C13.0517 3.55717 14.8858 5.39122 14.8858 7.65349V10.3937C14.8858 12.6561 13.0517 14.49 10.7894 14.49H10.7868L10.7894 14.4932H2.70976V16.0338V23.6186H-0.00976562V25.0312H11.5101V23.6186H6.70092V16.6267H7.2368L6.70122 16.6234L7.23859 16.6267H10.3093C11.637 16.6267 12.8982 16.4169 14.0405 16.0338C15.0708 15.6882 16.003 15.2006 16.7984 14.5958C18.5466 13.2665 19.6336 11.3724 19.6336 9.1737C19.6336 6.84682 18.5674 4.93009 16.7984 3.6227Z" fill="#0B3A81"></path>
        <path d="M79.9703 4.80469C81.2771 4.80469 82.3722 3.70966 82.3722 2.40287C82.3722 1.09608 81.2771 0.00119781 79.9703 0.00119781C78.6635 0.00119781 77.604 1.09608 77.604 2.40287C77.604 3.70966 78.6635 4.80469 79.9703 4.80469Z" fill="#0B3A81"></path>
        <path d="M6.69873 16.6256L7.23431 16.6289H7.2361L6.69873 16.6256Z" fill="#0B3A81"></path>
        <path d="M26.9762 23.3106C24.3979 23.3106 23.2676 20.2024 23.2676 16.0346C23.2676 11.867 24.3979 8.75891 26.9762 8.75891C29.5193 8.75891 30.6847 11.867 30.6847 16.0346C30.6847 20.2024 29.5193 23.3106 26.9762 23.3106ZM26.9762 7.48747C22.8438 7.48747 19.2061 11.1959 19.2061 16.0346C19.2061 20.9088 22.8438 24.582 26.9762 24.582C31.1085 24.582 34.7464 20.9088 34.7464 16.0346C34.7464 11.1959 31.1085 7.48747 26.9762 7.48747Z" fill="#0B3A81"></path>
        <path d="M76.1899 9.14858V9.96071C77.8146 10.2435 78.1324 10.9499 78.1324 12.1153V29.3015C77.5765 28.6633 76.781 28.2562 75.8368 28.2562C74.6005 28.2562 73.7175 29.0333 73.7175 29.9869C73.7175 31.2232 74.8831 32 76.4371 32C79.7925 32 81.9469 28.9273 81.9469 24.5478V7.48851H81.7351L76.1899 9.14858Z" fill="#0B3A81"></path>
        <path d="M67.931 23.3106C65.3528 23.3106 64.2225 20.2024 64.2225 16.0346C64.2225 11.867 65.3528 8.75891 67.931 8.75891C70.474 8.75891 71.6394 11.867 71.6394 16.0346C71.6394 20.2024 70.474 23.3106 67.931 23.3106ZM67.931 7.48747C63.7987 7.48747 60.1606 11.1959 60.1606 16.0346C60.1606 20.9088 63.7987 24.582 67.931 24.582C72.0633 24.582 75.7013 20.9088 75.7013 16.0346C75.7013 11.1959 72.0633 7.48747 67.931 7.48747Z" fill="#0B3A81"></path>
        <path d="M39.141 11.1607C39.141 9.74791 40.4831 8.79425 42.3551 8.79425C42.8142 8.79425 43.1674 8.86494 43.5206 9.00616C43.7325 11.0195 44.7214 11.8318 45.8163 11.8318C46.8053 11.8318 47.3703 11.1959 47.3703 10.313C47.3703 8.44113 44.8274 7.48747 42.5316 7.48747C39.1056 7.48747 36.3507 9.60669 36.3507 12.6441C36.3507 18.2245 45.1452 16.5998 45.1452 20.5908C45.1452 22.357 43.6265 23.2399 41.6133 23.2399C40.7657 23.2399 39.9533 23.0633 39.4236 22.7454C39.3529 20.485 38.3285 19.3546 37.1631 19.3546C36.2801 19.3546 35.5737 20.0258 35.5737 21.0853C35.5737 23.2399 38.3992 24.582 41.4721 24.582C45.3925 24.582 48.0767 22.1097 48.0767 19.1075C48.0767 13.2798 39.141 14.6926 39.141 11.1607Z" fill="#0B3A81"></path>
        <path d="M56.8396 22.4275C55.7447 22.4275 54.7911 21.7918 54.7911 20.485V9.18273H59.7268V7.84075H54.7911V2.61344H54.5438L50.9766 3.77886V7.84075H48.5396V9.18273H50.9766V20.7322C50.9766 23.2751 52.9191 24.582 55.0736 24.582C57.3693 24.582 59.0293 23.4518 60.1242 21.8978L59.4178 21.0853C58.6409 21.9329 57.8284 22.4275 56.8396 22.4275Z" fill="#0B3A81"></path>
    </g>
</svg>